<?xml version="1.0" encoding="UTF-8"?>
<!-- Generator: Adobe Illustrator 27.8.1, SVG Export Plug-In . SVG Version: 6.00 Build 0)  -->
<svg version="1.1" viewBox="0 0 319.411 566.781" xml:space="preserve" xmlns="http://www.w3.org/2000/svg">
<path d="m290.408 147.775c-1.316-1.178-2.607-2.388-3.918-3.616-16.092-15.074-34.329-32.159-126.784-32.159s-110.692 17.085-126.784 32.159c-1.311 1.229-2.602 2.439-3.918 3.616l-1.159 1.038 11.055 42.456h241.61l11.057-42.455z"/><path d="m278.539 188.717 10.167-39.042c-16.75-15-29.671-35.125-129-35.125-99.328 0-112.25 20.125-129 35.125l10.167 39.042z" fill="#e30613"/><path d="m92.362 92.525c-7.718-1.107-18.025-1.769-27.574-1.769-7.797 0-18.96 0.433-27.864 2.496-15.302 3.546-17.142 11.291-15.99 17.164 0.619 3.157 5.145 25.6 5.191 25.825l7.713-0.518 5.758-0.343c-0.035-0.207-3.526-20.66-3.852-23.225-0.097-0.759-0.304-4.646 5.127-6.677 3.719-1.391 9.951-2.988 25.266-2.988 6.672 0 14.631 0.313 23.656 0.931l1.648 0.112 3.375-10.228z"/><path d="m89.937 101.301c-33.443-2.287-44.182 0.081-49.813 2.188-5.624 2.104-6.827 6.298-6.491 8.937s3.866 23.313 3.866 23.313h-8.875s-4.562-22.625-5.187-25.812-1.312-10.626 14.063-14.189 40.563-2.688 54.5-0.688z" fill="#ffd500"/><path d="m282.485 93.253c-8.904-2.063-20.067-2.496-27.864-2.496-9.549 0-19.857 0.661-27.574 1.769l-3.015 0.433 3.938 10.576 1.648-0.112c9.025-0.617 16.984-0.931 23.656-0.931 15.314 0 21.547 1.598 25.266 2.988 5.431 2.031 5.224 5.918 5.127 6.677-0.326 2.564-3.817 23.018-3.853 23.225l13.055 0.777c0-1e-3 1e-3 -6e-3 1e-3 -6e-3l0.416 0.09c0.046-0.226 4.571-22.668 5.19-25.825 1.151-5.874-0.689-13.619-15.991-17.165z"/><path d="m229.471 101.301c33.443-2.287 44.182 0.081 49.813 2.188 5.624 2.104 6.827 6.298 6.491 8.937s-3.866 23.313-3.866 23.313h8.875s4.562-22.625 5.187-25.812 1.313-10.625-14.062-14.188-40.563-2.688-54.5-0.688z" fill="#ffd500"/><path d="m160.102 103.89c25.202-4.782 36.278-5.171 47.182-5.171 4.897 0 8.684 1.154 10.662 3.251 1.312 1.391 1.521 2.829 1.466 3.791-0.237 4.087-2.226 26.127-2.245 26.349l-0.186 2.052 15.011 1.833 0.31-2.04c0.037-0.243 3.7-24.322 4.609-30.97 0.439-3.216-0.419-6.179-2.481-8.569-0.266-0.308-0.558-0.603-0.862-0.891 0.127-0.198 0.218-0.39 0.037-0.552-3.846-3.447-10.401-5.377-18.708-5.472-1.362-0.016-2.712-0.025-4.056-0.025-14.214 0-27.76 1.005-51.136 5.969-23.377-4.964-36.922-5.969-51.136-5.969-1.344 0-2.693 0.01-4.056 0.025-8.236 0.093-14.75 1.992-18.609 5.384-0.141 0.124-0.066 0.309 0.078 0.514-0.356 0.327-0.697 0.663-1.003 1.018-2.062 2.391-2.92 5.354-2.48 8.569 0.908 6.647 4.571 30.727 4.608 30.97l0.31 2.04 15.011-1.833-0.186-2.052c-0.02-0.222-2.008-22.262-2.245-26.349-0.056-0.962 0.153-2.4 1.466-3.791 1.979-2.097 5.765-3.251 10.662-3.251 10.903 0 21.98 0.389 47.182 5.171h0.795z"/><path d="m214.867 90.051c-15.582-0.178-29.413 0.5-55.163 6-25.75-5.5-39.581-6.178-55.163-6-12.75 0.146-21.013 4.777-19.938 12.646 0.917 6.708 4.604 30.938 4.604 30.938l10.917-1.333s-2.008-22.249-2.25-26.417c-0.25-4.312 3.542-9.292 14.25-9.292 10.583 0 21.663 0.292 47.58 5.208 25.917-4.917 36.996-5.208 47.58-5.208 10.708 0 14.5 4.979 14.25 9.292-0.242 4.167-2.25 26.417-2.25 26.417l10.917 1.333s3.688-24.229 4.604-30.938c1.075-7.869-7.188-12.5-19.938-12.646z" fill="#ffd500"/><path d="m152.266 129.639c-0.018-0.146-1.766-14.9-1.766-38.505h18.409c0 23.604-1.748 38.358-1.766 38.505z"/><path d="m154.377 129.384s-1.75-14.5-1.75-38.25h14.157c0 23.75-1.75 38.25-1.75 38.25z" fill="#ffd500"/><polygon points="137.952 29.079 137.952 13.773 152.052 13.773 152.052 0 167.358 0 167.358 13.773 181.459 13.773 181.459 29.079 167.358 29.079 167.358 53.289 152.052 53.289 152.052 29.079"/><polygon points="164.808 2.551 154.603 2.551 154.603 16.323 140.503 16.323 140.503 26.528 154.603 26.528 154.603 50.738 164.808 50.738 164.808 26.528 178.908 26.528 178.908 16.323 164.808 16.323" fill="#ffd500"/><path d="m159.70601 46.404c-13.77 0-24.974 11.203-24.974 24.974 0 8.855 4.633 16.649 11.602 21.085 1.158 0.737 2.382 1.185 3.659 1.457 2.981 1.289 6.263 2.007 9.712 2.007 3.557 0 6.936-0.767 9.991-2.133 1.324-0.307 2.589-0.8 3.782-1.591 6.746-4.476 11.201-12.139 11.201-20.824 1e-3 -13.772-11.203-24.975-24.973-24.975z"/><circle cx="159.70551" cy="71.377998" r="22.423" fill="#ffd500"/><polygon points="167.025 49.771 159.611 47.926 152.385 49.771 154.627 54.076 154.627 68.737 136.203 68.737 136.968 78.052 182.442 78.052 183.208 68.737 164.783 68.737 164.783 54.076"/><path d="m154.74414 49.548828 2.08984 4v17.332033h-19.54296c-0.01 0.17-0.01 0.330002-0.01 0.500001 0 1.549999 0.15898 3.071017 0.45898 4.541016h43.92969c0.3-1.469999 0.46094-2.991017 0.46094-4.541016 0-0.169999 2.3e-4 -0.330001-0.01-0.500001h-19.54492v-17.332033l2.08985-4c-1.59707-0.387166-3.2514-0.597656-4.96071-0.597656s-3.36364 0.21049-4.96071 0.597656z" fill="#ffd500"/><path d="m34.185 198.034c-0.564-3.538-2.988-18.341-6.46-33.981-3.95-17.786-8.316-30.85-8.359-30.979l-0.704-2.093 1.972-0.997c1.634-0.826 3.439-1.366 5.083-1.72 0.077-0.016 0.178 0.125 0.296 0.374 0.929-0.192 1.803-0.327 2.554-0.418 0.759-0.092 1.54-0.139 2.321-0.139 6.527 0 10.952 3.114 11.549 8.128 0.596 5.019-3.175 10.735-5.209 13.407l0.066 0.077c3.141-3.399 7.991-7.649 11.907-8.124 0.296-0.036 0.597-0.055 0.903-0.055 4.32 0 9.139 3.745 9.99 10.903 0.914 7.693-2.387 13.137-8.408 13.867-0.263 0.032-0.533 0.048-0.811 0.048-4.072 0-9.468-3.651-12.412-5.906l-0.287 0.54c2.689 5.374 7.186 12.624 9.761 13.575 1.879 0.694 8.667 2.055 15.847 2.055 0.8 0 1.603-0.017 2.404-0.054 8.033-0.369 15.417-2.674 16.52-3.589 1.759-1.643 5.731-9.611 8.161-14.955l-0.172-0.239c-2.694 2.936-7.586 7.582-11.654 7.722-0.116 4e-3 -0.231 6e-3 -0.347 6e-3 -5.752 0-9.485-4.761-9.744-12.424-0.264-7.837 4.343-12.23 8.811-12.383l0.219-3e-3c3.758 0 8.813 3.332 12.226 6.138l0.015-0.023c-2.314-2.318-6.747-7.399-6.917-12.444-0.223-6.623 5.893-9.801 12.051-10.013 0.195-7e-3 0.394-0.01 0.596-0.01 5.871 0 11.89 2.837 12.104 9.174 0.17 5.046-3.912 10.42-6.063 12.891l0.014 0.02c3.286-3.103 8.221-6.845 12.001-6.975l0.238-4e-3c4.36 0 9.133 4.12 9.391 11.756 0.261 7.744-3.361 12.878-9.228 13.079l-0.207 3e-3c-4.028 0-9.104-4.209-11.942-6.906l-0.212 0.341c1.9 4.255 6.028 12.985 8.209 15.386 1.834 2.019 7.888 3.085 17.508 3.085 13.431 0 17.204-2.23 18.202-3.189 1.451-1.394 5.489-9.819 8.168-15.939l-0.218-0.343c-2.803 2.978-7.829 7.626-11.903 7.626-5.871 0-9.665-5.204-9.665-13.258 0-8.148 4.753-12.545 9.226-12.545 3.787 0 8.829 3.711 12.222 6.834l0.066-0.105c-2.202-2.457-6.538-7.966-6.538-13.257 0-6.834 6.419-9.947 12.383-9.947s12.382 3.113 12.382 9.947c0 5.291-4.336 10.8-6.538 13.257l0.066 0.107c3.393-3.123 8.436-6.835 12.222-6.835 4.473 0 9.226 4.396 9.226 12.545 0 8.054-3.794 13.258-9.665 13.258-4.074 0-9.101-4.648-11.903-7.626l-0.218 0.343c2.679 6.119 6.717 14.545 8.169 15.939 0.998 0.959 4.77 3.189 18.201 3.189 9.62 0 15.674-1.066 17.508-3.085 2.181-2.4 6.309-11.131 8.209-15.386l-0.212-0.341c-2.839 2.698-7.913 6.906-11.942 6.906l-0.207-3e-3c-5.867-0.201-9.489-5.335-9.229-13.079 0.258-7.636 5.03-11.756 9.391-11.756l0.238 4e-3c3.78 0.13 8.715 3.872 12.002 6.975l0.014-0.02c-2.152-2.471-6.233-7.845-6.063-12.891 0.214-6.337 6.232-9.174 12.104-9.174 0.202 0 0.4 3e-3 0.596 0.01 6.158 0.212 12.273 3.39 12.051 10.013-0.17 5.045-4.603 10.126-6.916 12.444l0.014 0.022c3.412-2.805 8.469-6.137 12.226-6.137l0.219 3e-3c4.469 0.153 9.075 4.546 8.811 12.383-0.258 7.663-3.991 12.424-9.744 12.424-0.114 0-0.23-2e-3 -0.346-6e-3 -4.068-0.14-8.959-4.786-11.654-7.722l-0.172 0.239c2.43 5.345 6.403 13.313 8.173 14.966 1.091 0.904 8.475 3.209 16.508 3.578 0.802 0.037 1.605 0.054 2.404 0.054 7.181 0 13.968-1.36 15.846-2.055 2.576-0.951 7.073-8.201 9.762-13.576l-0.287-0.539c-2.944 2.255-8.34 5.906-12.412 5.906-0.278 0-0.549-0.016-0.811-0.048-6.021-0.73-9.322-6.174-8.408-13.867 0.852-7.158 5.67-10.903 9.99-10.903 0.306 0 0.608 0.018 0.903 0.055 3.917 0.475 8.767 4.725 11.907 8.124l0.066-0.077c-2.034-2.672-5.805-8.389-5.208-13.407 0.596-5.014 5.021-8.128 11.548-8.128 0.781 0 1.562 0.047 2.321 0.139 0.819 0.099 1.785 0.25 2.81 0.473 0.106-0.259 0.185-0.396 0.232-0.385 1.59 0.353 3.318 0.882 4.891 1.677l1.972 0.997-0.704 2.093c-0.043 0.13-4.409 13.193-8.359 30.979-3.472 15.641-5.896 30.443-6.46 33.981l-1.001 5.183h-249z"/><path d="m282.642 198.034c0.428-2.718 2.9-18.08 6.553-34.534 4.029-18.143 8.432-31.24 8.432-31.24-2.235-1.13-4.983-1.682-7.038-1.931-4.299-0.521-10.827 0.447-11.502 6.13-0.676 5.683 5.872 13.211 5.872 13.211l-2.841 3.254c-3.446-4.208-8.769-8.834-12.163-9.246s-7.75 2.455-8.526 8.99c-0.777 6.535 1.715 10.919 6.552 11.505 4.837 0.587 13.634-7.02 13.634-7.02l2.007 3.772s-6.636 13.846-11.411 15.609c-2.379 0.878-10.841 2.509-19.085 2.131-8.308-0.381-16.395-2.779-17.861-4.148-2.921-2.728-9.163-16.763-9.163-16.763l2.453-3.42s7.219 8.861 11.888 9.022 7.671-3.789 7.893-10.364-3.484-10.074-6.76-10.187-8.996 3.643-12.877 7.274l-2.215-3.649s7.306-6.436 7.499-12.154-5.85-7.673-9.999-7.816-10.309 1.393-10.502 7.111 6.663 12.641 6.663 12.641l-2.456 3.489c-3.628-3.889-9.082-8.029-12.358-8.141-3.276-0.113-7.209 3.123-7.43 9.699-0.222 6.575 2.508 10.722 7.177 10.883 4.668 0.16 12.468-8.184 12.468-8.184l2.217 3.581s-5.902 13.536-9.033 16.981c-1.535 1.689-5.271 3.782-19.081 3.782-14.393 0-18.382-2.54-19.674-3.782-2.536-2.437-9.096-17.662-9.096-17.662l2.337-3.668s7.514 9.015 12.185 9.015 7.539-4.242 7.539-11.132-3.822-10.419-7.1-10.419-8.868 4.137-12.625 8.077l-2.337-3.74s7.085-6.999 7.085-12.991-6.105-7.821-10.256-7.821-10.256 1.829-10.256 7.821 7.085 12.991 7.085 12.991l-2.337 3.74c-3.757-3.94-9.347-8.077-12.625-8.077s-7.1 3.529-7.1 10.419 2.868 11.132 7.539 11.132 12.185-9.015 12.185-9.015l2.337 3.668s-6.56 15.225-9.096 17.662c-1.293 1.242-5.282 3.782-19.674 3.782-13.809 0-17.545-2.092-19.081-3.782-3.131-3.445-9.033-16.981-9.033-16.981l2.217-3.581s7.799 8.345 12.468 8.184c4.668-0.161 7.398-4.308 7.177-10.883-0.222-6.575-4.155-9.811-7.431-9.699-3.276 0.113-8.73 4.252-12.358 8.141l-2.455-3.489s6.856-6.923 6.663-12.641-6.353-7.254-10.502-7.111-10.191 2.098-9.999 7.816c0.193 5.718 7.499 12.154 7.499 12.154l-2.215 3.649c-3.881-3.631-9.601-7.386-12.877-7.274-3.276 0.113-6.982 3.611-6.76 10.187 0.222 6.575 3.224 10.525 7.893 10.364 4.669-0.16 11.888-9.022 11.888-9.022l2.453 3.42s-6.243 14.035-9.163 16.763c-1.466 1.369-9.553 3.767-17.861 4.148-8.244 0.378-16.707-1.252-19.085-2.131-4.775-1.764-11.411-15.609-11.411-15.609l2.006-3.772s8.797 7.607 13.634 7.02 7.329-4.97 6.553-11.505c-0.777-6.535-5.132-9.402-8.527-8.99-3.394 0.412-8.717 5.037-12.163 9.246l-2.841-3.254s6.548-7.528 5.872-13.211c-0.675-5.683-7.204-6.651-11.502-6.13-2.055 0.249-4.803 0.802-7.038 1.931 0 0 4.403 13.096 8.431 31.24 3.654 16.454 6.125 31.816 6.553 34.534l7.122 5.157h231.5z" fill="#ffd500"/><g id="Skjold">
		<path d="m0 198.034 0.107 2.654c0.17 4.176 0.335 8.352 0.5 12.527 3.058 77.408 6.22 157.452 40.328 226.465 22.686 45.902 61.061 87.148 117.318 126.096l1.452 1.005 1.452-1.005c56.257-38.947 94.632-80.193 117.318-126.096 34.108-69.013 37.27-149.057 40.328-226.465 0.165-4.175 0.33-8.352 0.5-12.527l0.107-2.654z"/>
		<path d="m316.754 200.585c-3.363 82.802-4.898 165.799-40.565 237.966-22.775 46.082-61.641 87.16-116.483 125.128-54.843-37.968-93.708-79.046-116.483-125.128-35.668-72.167-37.203-155.165-40.566-237.966z" fill="#e30613"/>
	</g><rect transform="rotate(91.065792)" x="223.12105" y="-80.367279" width="179.80615" height="9.4577446" stroke-width=".999973"/><path d="m92.903 280.708-1.482-3.309-4.751-0.201-4.159-2.398c2.051-2.515 5.085-6.228 5.574-7.774 2.371-7.506 0.454-14.973 0.23-15.428l-2.422-1.953s0.125 2.969-0.94 5.481c-0.537 1.266-0.867 2.06-1.823 3.528-0.297 0.149-1.162 0.235-1.638 0.282-1.363 0.136-3.23 0.322-3.982 2.029-0.736 1.67-2.484 5.517-3.462 7.502-1.971-0.382-3.319-1.389-3.804-2.087l-0.258-0.371-0.387-0.234c-4.002-2.425-8.049-3.654-12.027-3.654-4.52 0-7.29 1.597-7.591 1.778l-2.272 1.374-0.908 1.858 3.914 0.683c0.82 0.143 2.775 0.503 4.247 0.835 0.369 1.893 1.028 4.003 2.481 6.155l0.2 0.297 0.287 0.215c1.98 1.484 8.218 1.786 10.758 1.847-1e-3 6e-3 -0.089 0.398-0.134 0.606-8.359 2.657-12.2 5.653-12.995 6.624-0.667 0.816-4.027 5.901-4.897 8.439l-1.001 2.921 1.172 2.168 3.231-2.79c0.858-0.741 1.867-1.547 3.043-2.153 1.478 0.959 2.771 1.545 4.273 2.122l0.852 0.327 0.824-0.392c4.312-2.051 9.304-6.879 11.985-9.473 0.189-0.184 0.371-0.359 0.541-0.523 0.925 0.482 1.834 1.013 2.557 1.452l-1.694 3.798 3.072 2.749 0.969-0.129c0.454-0.061 1.082-0.093 1.816-0.093 0.761 0 1.498 0.034 1.991 0.062l33.452 25.737 5.937-22.131z"/><path d="m116.518 314.988-31.438-24.187s-3-0.25-4.875 0l-1.188-1.062 1.812-4.062s-3-2-5.625-3.188c-1.5 1.25-7.938 8.188-13.062 10.625-1.625-0.625-3-1.25-4.812-2.562-1.812 0.688-3.281 1.781-4.656 2.969 0.75-2.188 3.969-7.094 4.531-7.781s4.375-3.688 13.188-6.312c0.562-3.188 1.375-4.375-0.625-4.375s-9.062-0.312-10.562-1.438c-1.688-2.5-2.125-4.938-2.375-6.688-1.688-0.5-5.75-1.208-5.75-1.208s7.167-4.333 17.417 1.875c1.042 1.5 3.562 3.021 6.75 3.146 0.729-1.146 3.754-7.885 4.208-8.917 0.542-1.229 4.292-0.25 5.396-1.917s2.063-3.958 2.063-3.958 1.604 2.792-0.813 10.312c-0.601 1.871-6.833 9.125-6.833 9.125l6.792 3.917 3.958 0.167 1.25 2.792 29.917 15.333z" fill="#ffd500"/><path d="m206.802 234.402c1.137 0.232 3.47 1.982 4.595 3.107 0.375 2.167 0.042 5.708-0.667 6.75-0.708 1.042-4.625 5.208-4.625 5.208s0.172 16.351-6 30.708c-7.917 18.417-17.833 27.583-16.833 39l-4.344-1.865-1.406 60.281c3.75 4 5.417 6.167 12.083 21.417 6.667 15.25 18.956 39.13 24.873 45.714 5.917 6.583 21.544 9.536 31.294 0.036 8.889-8.661 6.056-21.7-0.167-32.333-6.583-11.25-16.417-27.667-21.917-39s-8.333-26.417 1.5-39.5c5.585-7.43 16.872-16.118 27.639-24.302 8.191-6.227 16.042-12.207 21.077-16.858 12.046-11.124 20.773-26.746 11.802-43.537-9.215-17.247-36.179-8.293-33.164 6.905 5.167 0.5 8.597 1.491 9.264 1.907 0.667 0.417 5.695 6.801 6.925 13.885 0.38 6.321-2.001 17.437-3.334 21.187-1.167 0.167-3.375 0.312-3.375 0.312 0.417-6-0.25-11.75-4-16.417 0.75 5.083 1.062 9.479-3.586 14.384-4.462 4.707-31.195 23.002-36.497 31.367-1.229 0.229-2.188 0.229-2.792 0.146 2.438-11.125 7.208-19.562 24.875-41.562 0-2.031-0.473-4.335-0.473-4.335-4.978 3.809-8.919 7.981-11.054 10.373-1 0.219-2.13-7e-3 -2.13-7e-3 4.823-14.74 8.865-21.531 13.031-26.406-1.292-9.708 4.74-31.104 29.406-31.104 25.417 0 30.985 22.81 30.985 34.31s-3.44 24.408-19.69 42.158c-4.655 5.085-8.973 8.325-11.909 11.345-3.339 3.433-5.381 6.005-6.667 8 2.333-0.5 4.75-0.417 4.75-0.417l13.74 2.385 7.375-0.833s0.417 0.667 0.542 1.833l-36.875 17.438s-0.249 0.786-0.519 1.675c4.312-0.875 10.362-1.727 10.362-1.727l13.458 2.854 6.25-0.375s0.562 0.5 0.625 1.875c-4.812 2.438-32.333 15.396-32.333 15.396l0.115 1.501 4.885-0.501 12.521 2.896 6.312-0.688c0.562 1.062 0.5 2.125 0.5 2.125l-22.271 10.938c0.75 4.625 2.537 9.318 8.709 27.648 5.604 16.644 4.937 33.769-10.23 45.227-14.762 11.152-35.939 8.492-48.083-6.5-8.832-10.903-15.25-21.333-19.5-26.833 0.354 8.75 0.902 34.187 3.542 38.938 1.25 2.25 4.125 5.438 4.125 5.438s0.188 9.062-1.688 13.312c-0.938 1.062-2.75 2.688-2.75 2.688s-2.729 24.708-2.979 33.875 1.25 12.25 1.25 12.25-1.083 1.583-2.75 2.25c-3.667-3.083-6.458-5.042-7.375-5.417-1.667 0.708-5.375 3.167-7.042 4.958 1.083 3.375 2.792 9.125 2.792 9.125s-3.333 3.083-6.125 4.667c0.125 3-0.25 4.875 1.375 9.25-1.542 0.292-3.292-0.208-3.292-0.208-4.458-6.625-6.417-10.667-6.25-14.667s1.708-8.667 1.708-8.667l-8.333 7.583s-4.167-0.75-6.625-3.667c-3.75 1.125-6.167 2.25-7.583 3.75-0.375-1.417-0.458-3.042-0.458-3.042s4.208-7 9.292-10.292c4.5-0.875 11.25-1.833 11.25-1.833s-8.625-4.042-11.417-5.917c-0.5-4.208 1-8.833 1-8.833s-2.817-3.727-7.2-5.822l2.93-1.57s6.52 0.23 13.76 5.49c2.05 1.94 4.313 7.19 7.093 11.61 2.79-0.08 5.317-1.22 5.957-1.91 0.5-5.55 1.09-23.69-3.71-46.29-1.82-3.72-19.96-22.98-22.4-25.62 0 0-6.63 7.84-7.92 12.71-0.13 2.19-0.13 5-0.13 5s-5.68 3.69-13.43 5.69c-1.45-0.93-4.38-3.34-6.91-5.25-5.5-1-23.46-5.37-29.37-6.75-5.92-1.37-7.38-0.62-10.13 0-0.79-1.08-1.25-2.25-1.62-3.12 1.79-1.29 3.62-2.81 4.65-4.47-0.25-3.22-1.84-5.59-3.5-8.03-2.56 0.9-6.43 2.12-6.43 2.12s-7.16 0.44-14.44-3.31c-0.13-0.84-0.53-3-0.53-3 1.97 0.47 5.15 0.88 7.15 0.44 0.47-0.91 2.19-5.35 2.19-5.35s7.91-0.28 10.41-0.59c-2.5-1.97-7.5-3.25-11.35-5.28 0.03-2.47 0.88-4.5 1.88-5.69-1.38-1.53-3.5-3.25-3.5-3.25l-5.16-1.06s1.06-1.75 2.06-2.44c2.94-0.03 8.16 0.47 9.63 0.6 1.75 0.59 5.28 2.03 7.41 3.78 1.43 1.87 6.28 9.31 6.28 9.31s0.78-7.53 1.5-10.38c2.22-0.81 5.53-1.31 5.53-1.31s2.12-2.22 1.47-9.25c1.15 0.31 2.84 1.44 2.84 1.44 2.44 5.81 2.59 12 1.06 17.34-2.18 3.41-3.68 5.19-6.47 8.38 0.47 2.22 2.19 8.9 2.19 8.9l28.13 2.6c-0.94-1.75-1.59-4-2.03-6.6 0.34-7.28 2.32-20.65 7.32-35.94 6.62-5.34 25.54-12.38 25.54-12.38s-0.5-7.37-3.54-18.67c-1.63-2.33-5.25-6.87-9.96-11.87-1.71-3.79-3.75-8.54-3.75-8.54s-21.75 24.67-30.46 35.21c-0.91-0.67-2.33-1.75-2.33-1.75 0.79-2.54 0.37-5.84-2.46-7.13s-5.33-2.21-5.33-2.21-6.13 8.34-9.8 10.96c-1.62-0.21-8.2-1.08-8.2-1.08s-4.25 1.46-9.34 5.87c-0.96-1.16-1.25-2.62-1.25-2.62s2.38-7.21 6.25-10.25c3.88-3.04 12.63-7.42 12.63-7.42 0.12-0.5-0.17-1.46-0.17-1.46s-6.96-0.2-14.87-2.45c-0.88-1.88-2.75-6.92-2.75-6.92-2-0.29-4.59-0.42-8.13 0.42 0.42-1.17 1.29-3.5 1.29-3.5s4-2.5 7.34-3.21c4.04-0.09 7-0.4 10.06 0.54s9.83 5.92 9.83 5.92l-3.52-8.73s1-4.82 3.79-7.5c0 0-0.58-4.02-2.37-7.11 0.91-0.42 2.79-0.48 2.79-0.48s4.71 2.86 7.81 11.13c0.17 3.18 0.53 14.68 0.53 14.68l4.77 2.72c8.48-12.98 16.96-26.44 25.42-40.51-4.41 0.61-7.91 0.23-7.91 0.23s2.13-4.97 3.38-16.81c0.92-8.67 2.35-12.58 2.69-13.35 1.66-3 4.02-6.42 10.81-11.65 6.08-4.69 15.6-12.58 23.73-15.62 4.3-1.62 14.67-2.95 19.23-4.07 0.39-0.77 0.44-1.81 0.44-1.81l-15.94-1.35 4.497-7.59-4.587-6.591-0.77-8.348 10.82-8.93-0.9-17.684s1.679 0.234 3.079 0.883c0.864 0.401 1.847 0.933 2.516 1.507 0.697-0.307 1.426-0.465 2.162-0.465 0.836 0 1.658 0.201 2.445 0.599 1.838 0.93 2.83 2.938 2.528 5.116-0.299 2.149-1.751 3.8-3.716 4.237 0.089 0.241 0.192 0.458 0.328 0.662 0.192 0.289 0.502 0.482 0.841 0.56l6.953 1.61c0.288-0.133 0.581-0.322 0.862-0.543-0.472-0.21-0.928-0.497-1.358-0.857-1.377-1.15-2.059-3.022-1.781-4.886 0.257-1.731 1.329-3.154 2.867-3.806 0.669-0.284 1.361-0.429 2.057-0.429 0.645 0 1.224 0.124 1.722 0.304 1.008-0.862 2.289-1.344 3.678-1.344 2.059 0 4.197 1.13 5.146 3.312 1.287 0.129 2.462 0.727 3.351 1.717 1.116 1.244 1.482 2.988 0.98 4.666-0.541 1.805-1.954 3.209-3.688 3.664-0.51 0.134-1.013 0.202-1.497 0.202-0.095 0-0.189-3e-3 -0.283-8e-3 0.152 0.351 0.332 0.672 0.53 0.924l6.657 1.479c0.285 0.063 0.586 0.043 0.853-0.073 0.361-0.158 0.707-0.333 1.031-0.522-1.613-1.249-2.242-3.448-1.567-5.518 0.646-1.975 2.29-3.25 4.191-3.25h7e-3c0.111-7e-3 0.222-0.01 0.331-0.01 1.52 0 2.887 0.625 3.902 1.736 0.871-0.279 1.726-0.406 2.662-0.406 3.017-1e-3 4.656 0.785 4.656 0.785l-1.725 2.594c-3.597 5.413-6.006 8.828-7.959 11.613z"/><path d="m203.214 235.853c0.871 0 2.084 0.022 3.163 0.645 1.262 0.728 1.929 1.103 3.009 2.053 0.154 1.795-0.16 4.043-0.438 4.561-0.338 0.522-3.273 3.739-4.978 5.534 0.547 11.796-3.767 31.166-14.798 47.94-4.137 7.129-7.535 12.983-8.034 19.372l-4.263-1.83-1.499 64.295c4.398 4.726 5.399 5.822 12.281 21.448 6.364 14.558 18.87 39.197 25.239 46.283 7.774 8.782 26.023 9.088 34.359 0.138 12.549-12.848 3.705-28.935-2.68-39.809-6.355-10.812-14.264-24.268-18.976-33.976-3.919-8.075-8.962-23.658 1.287-37.294 5.78-7.691 18.467-17.31 29.571-25.664 17.162-12.911 44.945-32.191 31.312-60.937-3.296-6.95-10.339-10.875-18.25-10.875-11.649-0.227-22.25 9.625-18.5 20.437 2.625-0.188 9.536 1.364 9.562 1.625 3.707 4.638 5.562 9.125 6.062 12.562 0.312 3.875-0.919 10.394-2.438 17.562 0.038-5.305-2.625-12.706-6.832-17.102-0.53-0.052-1.27-0.12-2.152-0.191 0.923 6.134 2.753 12.385-2.266 17.231-7.913 7.057-30.019 22.859-34.75 29.062 2.488-7.97 9.277-18.692 23.938-36.824 9e-3 -4.112-0.663-5.833-1.213-8.691-3.624 2.387-8.271 6.474-10.913 9.265 4.471-11.823 8.086-17.23 11.688-21.438-2.292-14.666 8.5-29.375 27.062-29.375 27.062 0 28.648 26.66 28.875 31.937 0.731 16.969-10.023 33.662-27.5 49.188-5.476 5.109-9.853 10.186-13.185 15.85 2.001-0.445 7.253-1.65 8.898-1.448 0.282-0.052 12.08 1.919 14.287 2.535l-30.875 14.625s-1.433 4.595-1.375 5.875c3.591-0.762 10.687-2.062 12.972-2.221l13.84 2.971s-26.539 12.605-28.043 13.339l0.418 5.036 6.704-0.602 13.108 2.915-18.125 8.875c0.682 17.443 27.165 51.646-0.632 72.516-13.597 10.805-34.475 7.517-45.132-6.155-8.637-10.558-13.922-19.697-21.204-29.039-0.918-0.462-1.598-0.105-2.112 0.824 0.029 2.302 0.069 4.544 0.18 6.663 1.471 20.743-0.713 32.639 7.532 41.241-1e-3 2.763-0.244 8.406-1.39 11.345-1.097 1.149-2.08 2.021-2.953 2.804-0.199 4.04-5.031 37.95-2.099 46.71-0.088 0.055-0.077 0.048-0.165 0.104-3.036-2.427-5.428-4.353-7.581-5.119-2.921 1.137-7.107 4.015-9.431 6.727 0.873 2.679 2.083 6.668 2.771 8.969-1.421 1.262-3.881 3.131-5.877 4.149 0.146 2.213-0.016 4.134 0.286 6.403-5.764-8.098-4.28-13.501-2.366-19.369l-2.897-2.357-8.218 7.478c-1.53-0.335-4.132-1.944-5.318-3.759-1.736 0.507-3.896 1.182-5.29 1.793 1.53-2.108 3.965-5.091 6.638-6.932 5.295-0.985 10.421-1.685 11.566-1.855l0.428-3.598c-0.77-0.37-7.089-3.292-10.949-5.538 0.015-4.659 0.878-6.369 1.327-7.997-1.109-1.397-1.182-1.827-4.201-4.465 11.389 2.786 11.26 6.934 17.27 16.731 3.65 0.094 7.729-1.188 9.162-3.157 0.214-2.82 1.91-22.306-3.853-48.138-1.173-2.396-7.308-9.513-19.779-22.936h1e-3c-0.655-0.638-2.475-2.626-4.421-4.937-0.76-0.795-1.281 0.209-1.791 1.298-0.934 1.137-6.923 9.039-8.438 13.344-0.205 1.4-0.203 3.886-0.25 5.031-1.771 1.016-5.642 2.943-10.719 4.375-1.85-1.349-3.909-3.203-5.906-4.688 0 0-16.942-4.305-24.75-5.719-5.419-0.981-9.344-3.219-14.844-1.812 1.625-1.469 3.594-3.125 4.156-5.281-0.656-4.188-2.723-7.131-4.906-10.344-7.086 2.465-8.79 3.548-17.188 1.031 1.25-0.219 2.684-0.542 3.719-0.781 0.754-1.37 1.312-3.406 1.858-4.516 2.142-0.734 7.212-1.013 9.642-0.89l1.261-2.929c-2.782-2.447-7.447-3.694-11.078-5.389 0.357-2.225 1.248-3.521 2.411-4.901-1.186-1.4-2.75-3-4.719-4.219 4.257 0.089 7.048 1.185 10.625 3.688 1.906 2.615 6.302 9.177 6.704 9.787l3.364-0.737c0.132-1.165 0.507-5.807 1.244-9.925 2.663-0.703 4.265-0.945 5.344-1.125 0.719-1.031 1.031-1.844 1.92-5.278 2.355 9.597-0.505 14.066-6.983 20.872 0.741 3.609 2.164 9.042 2.656 11l33.375 3.125c-1.633-2.997-2.647-4.878-3.225-8.78 0.376-7.437 2.409-20.288 7.005-34.532 7.796-5.63 24.623-11.811 25.938-12.344-0.271-2.33-0.497-9.463-4.187-21.75-1.638-2.342-4.948-6.542-9.656-11.562-2.849-6.394-3.42-7.734-5.031-11.469-2.514 2.866-19.422 22.139-31.031 35.906 0.805-6.997-7.027-8.46-10.906-10.031-2.164 2.945-6.105 8.287-9.64 11.37-2.368-0.311-7.673-1.152-7.673-1.152-0.982 0.375-3.181 1.057-7.738 4.248 1.004-2.351 2.74-5.674 4.788-7.282 4.377-3.328 12.47-7.998 13.294-8.435 0.25-1.469 0.225-2.491-0.281-4-2.638-0.156-6.13-0.132-15.199-2.349-1.385-3.355-2.148-5.509-2.733-7.061-1.786-0.284-3.632-0.498-5.394-0.406 3.796-2.384 9.608-2.632 13.669-1.621 2.164 0.687 7.312 4.188 10.156 5.812l2.5-1.938-3.387-8.64c0.314-1.481 1.787-5.044 3.821-6.567-0.26-1.602-0.156-1.784-1.055-4.881 1.871 1.307 3.568 4.166 5.121 8.182 0.211 4.465 0.434 14.425 0.469 15.406l7.42 4.293c10.18-15.529 19.836-30.615 29.08-46.074-2.724 0.366-6.594 0.704-9.344 0.656 0.767-2.708 1.829-7.147 2.583-14.286 0.901-8.495 2.257-12.075 2.489-12.638 0.816-2.396 6.793-8.737 12.53-12.719 5.904-4.614 13.991-10.934 20.841-13.495 4.418-1.635 14.705-2.857 19.94-4.229 1.209-1.992 1.661-3.852 1.741-5.632l-15.14-1.192 3.442-5.933-5.087-7.286-0.559-6.777 10.772-8.662-0.793-15.816c1.369 0.562 2.143 1.228 3.002 2.259 1.185-1.055 2.578-1.391 3.969-0.688 2.248 1.137 1.681 4.92-0.76 5.396-1.317 0.257-2.715-0.491-2.715-0.491 0.14 1.728 0.943 3.454 2.191 4.881 0.399 0.457 0.932 0.78 1.523 0.916l6.906 1.592c0.69 0.159 1.415 0.062 2.031-0.288 1.785-1.016 3.61-3.172 3.477-4.862-0.846 0.89-2.322 1.425-3.892 0.113-1.571-1.312-1.458-4.251 0.553-5.102 2.01-0.852 3.437 0.669 3.437 0.669 1.667-3.188 6.5-2.375 6.708 1.5 0 0 1.938-0.771 3.396 0.854s0.312 4.333-1.667 4.854-3.088-0.591-3.476-1.755c-0.842 1.48-0.245 4.264 0.896 5.953 0.391 0.579 1.01 0.963 1.691 1.114l6.593 1.465c0.573 0.127 1.17 0.075 1.713-0.149 1.833-0.757 3.566-1.979 4.438-3.503 0 0-1.583 0.083-2.667-0.708-2.008-1.467-0.953-5.069 1.333-5 1.544-0.121 2.75 0.792 3.375 2.25 1.5-0.792 2.75-1.083 4.624-0.854-4.918 7.412-7.32 10.695-9.771 14.245z" fill="#ffd500"/><polygon points="162.729 244.898 177.85 245.988 179.259 252.203 164.304 251.125"/><polygon points="176.125 247.996 176.551 249.876 165.988 249.115 165.512 247.23" fill="#e30613"/>
		<path d="m154.343 246.257c-5.855-0.445-10.392-0.79-11.104-0.843-0.783-0.058-1.442-0.127-1.957-0.207-0.297-0.047-0.585-0.156-0.855-0.324l-3.253-2.025c-0.684 0.146-1.206 0.856-1.245 1.729l3.374 2.1c0.513 0.319 1.067 0.528 1.65 0.62 0.574 0.089 1.29 0.165 2.13 0.228 0.778 0.057 6.155 0.465 12.827 0.973z"/>
	<polygon points="166.38 225.326 198.174 232.476 194.687 233.871 165.914 227.4"/><polygon points="167.029 225.472 198.174 232.476 200.021 231.737 168.909 224.051" fill="#ffd500"/>
		<polygon points="159.932 238.323 158.663 236.616 155.033 239.183 156.261 240.919"/>
		<path d="m186.563 234.875-19.3-4.34-3.955 2.797 1.163 1.782 3.248-2.297s0.149-6e-3 0.427-2e-3c0.19 1.91 0.679 4.601 1.938 5.388 0.678 0.424 1.665 0.598 2.664 0.598 1.27 0 2.559-0.281 3.25-0.686 1.173-0.688 1.505-2.516 1.596-3.679 4.927 1.294 8.969 2.62 8.969 2.62z"/>
	<path d="m198.623 237.421c2.789-0.974 4.736-1.531 6.853-1.773l-0.242-2.111c-2.525 0.289-4.761 0.965-8.165 2.178 0.212 0.361 0.712 1.084 1.554 1.706z"/><path d="m200.616 239.738s1.406-0.719 2.812-0.906c1.625 0.375 2.188 0.906 2.594 1.375 0.039 0.72-0.166 1.652-0.297 1.953-0.073 0.167-1.059 1.382-2.203 2.326 0 0-0.415-2.248-0.625-2.842-1.281-0.958-2.281-1.906-2.281-1.906z"/><path d="m124.461 305.194-1.837-1.075s8.131-12.46 9.631-14.772c1.821-2.808 5.039-3.58 8.208-4.05 3.348-0.496 13.243-1.771 13.364-1.785l-0.604 2.204c-0.12 0.015-9.123 1.192-12.448 1.685-3.092 0.458-5.45 1.12-6.736 3.103-1.501 2.313-9.578 14.69-9.578 14.69z"/><path d="m179.692 418.884c-0.111-8.823-0.054-18.533-3.163-25.648l1.071-2.562c4.088 7.047 4.111 18.475 4.204 27.385-0.584 1.287-1.295 1.504-2.112 0.825z"/><polygon points="148.275 320.863 149.752 322.404 127.918 347.417 127.616 344.426"/><polygon points="148.275 320.863 144.731 316.503 122.896 341.516 127.616 344.426" fill="#ffd500"/><path d="m127.019 306.887-2.558-1.693s8.077-12.377 9.577-14.69c1.286-1.982 3.644-2.645 6.736-3.103 3.325-0.493 12.328-1.67 12.448-1.685l-0.985 3.594z" fill="#ffd500"/><path d="m138.272 441.145c-1.982-2.217-5.581-6.88-6.365-9.699-2.236-8.943-2.246-16.629-1.861-21.508 5.992-11.479 22.589-18.805 25.563-31.396l2.107 0.34c-2.84 12.864-18.783 20.331-25.571 31.484-0.35 4.732-0.303 12.057 1.816 20.529 0.196 1.576 3.282 5.603 6.102 8.952 0.511 0.602-0.989 1.13-1.791 1.298z"/><path d="m179.692 418.884c-0.111-8.823-0.054-18.533-3.163-25.648l-16.037-13.957-2.776-0.399c-2.84 12.864-18.783 20.331-25.571 31.484-0.35 4.732-0.303 12.057 1.816 20.529 0.196 1.576 3.282 5.603 6.102 8.952 0.511 0.603 20.429-12.629 20.429-12.629z" fill="#ffd500"/><path d="m174.921 236.279c-0.684 0.401-2.93 0.608-3.688 0.136-0.326-0.293-0.717-1.812-0.924-3.448 1.276 0.143 3.016 0.419 5.196 0.939-0.026 0.982-0.305 2.168-0.584 2.373z" fill="#e30613"/><rect transform="rotate(1.0715205)" x="73.039368" y="225.22665" width="5.2058692" height="175.5546" fill="#ffd500" stroke-width=".999975"/>
		<path d="m32.514 264.787c-8.659-14.871-13.382-34.872-12.031-50.956l0.315-3.749 3.446 2.49c18.493 13.366 24.723 17.869 40.608 18.201 2.461 0.052 14.825 0.276 14.825 0.276l-0.317 16.955s-16.629-0.307-17.466-0.307c-7.254 0-11.387 0.74-25.941 17.417l-1.948 2.232z"/>
	
		<path d="m64.57 245.604 12.704 0.237 0.237-12.704s-10.242-0.185-12.704-0.237c-16.664-0.349-23.123-5.099-42.206-18.89-1.417 16.875 4.083 36.542 11.75 49.708 16-18.334 19.948-18.292 30.219-18.114z" fill="#fff"/>
	
</svg>
